<?xml version="1.0" encoding="utf-8"?>
<!-- generated at drububu.com  -->
<!DOCTYPE svg PUBLIC "-//W3C//DTD SVG 1.1//EN" "http://www.w3.org/Graphics/SVG/1.1/DTD/svg11.dtd">
<svg version="1.1" preserveAspectRatio="xMinYMin meet" xmlns="http://www.w3.org/2000/svg" xmlns:xlink="http://www.w3.org/1999/xlink" x="0px" y="0px" width="16px" height="16px" viewBox="0 0 16 16">
<path d="M6 0h4v1h1v1h1v2h1v1h3v1h-16v-1h3v-1h1v-2h1v-1h1v-1z" fill="rgb(87,71,30)"/>
<path d="M3 6h1v1h-1v-1z" fill="rgb(0,0,0)"/>
<path d="M4 6h8v1h-8v-1z" fill="rgb(213,226,146)"/>
<path d="M12 6h1v1h-1v-1z" fill="rgb(0,0,0)"/>
<path d="M3 7h1v3h3v-2h2v2h3v-3h1v6h-1v2h-1v-4h-6v4h-1v-2h-1v-6z" fill="rgb(213,226,146)"/>
<path d="M4 7h8v1h-1v1h-2v-1h-2v1h-2v-1h-1v-1z" fill="rgb(0,0,0)"/>
<path d="M4 8h1v1h2v1h-3v-2z" fill="rgb(2,1,2)"/>
<path d="M11 8h1v2h-3v-1h2v-1z" fill="rgb(2,1,2)"/>
<path d="M5 11h6v4h-6v-4z" fill="rgb(166,124,124)"/>
<path d="M6 12h4v2h-4v-2z" fill="rgb(252,252,252)"/>
<path d="M5 15h6v1h-6v-1z" fill="rgb(213,226,146)"/>
</svg>